<?xml version="1.0" standalone="no"?>
<!DOCTYPE svg PUBLIC "-//W3C//DTD SVG 20010904//EN"
 "http://www.w3.org/TR/2001/REC-SVG-20010904/DTD/svg10.dtd">
<svg version="1.0" xmlns="http://www.w3.org/2000/svg"
 width="260.000000pt" height="260.000000pt" viewBox="0 0 260.000000 260.000000"
 preserveAspectRatio="xMidYMid meet">
<metadata>
Created by potrace 1.14, written by Peter Selinger 2001-2017
</metadata>
<g transform="translate(0.000000,260.000000) scale(0.100000,-0.100000)"
fill="#000000" stroke="none">
<path d="M2578 2489 c10 -13 10 -18 -1 -28 -8 -6 -17 -8 -20 -4 -7 6 -11 -13
-7 -32 1 -5 -2 -6 -7 -2 -14 15 -10 31 12 45 19 12 19 13 -4 6 -18 -5 -22 -3
-15 7 4 7 -7 3 -24 -10 -18 -12 -32 -28 -32 -34 0 -7 -4 -6 -11 3 -8 12 -9 10
-4 -9 6 -18 4 -22 -6 -16 -8 5 -11 4 -6 -1 5 -5 13 -9 18 -9 5 0 9 -3 9 -7 0
-5 0 -10 0 -13 0 -3 -10 0 -22 6 l-23 12 20 -23 20 -23 -35 17 c-28 14 -31 14
-16 2 11 -9 21 -26 22 -38 2 -13 0 -18 -2 -11 -3 7 -13 9 -22 6 -15 -6 -16 -5
-2 13 14 17 13 18 -1 7 -9 -7 -20 -9 -25 -5 -5 4 0 -4 11 -17 11 -14 15 -21 8
-18 -6 4 -16 0 -22 -10 -6 -11 -11 -13 -11 -5 0 7 -4 11 -10 7 -5 -3 -8 -11
-6 -18 1 -7 1 -9 -1 -4 -3 4 -10 4 -16 0 -6 -3 -2 5 9 19 13 17 21 22 26 14 4
-6 8 -6 8 -1 0 23 -15 33 -28 19 -7 -8 -9 -14 -5 -14 4 0 1 -6 -8 -13 -9 -7
-19 -21 -21 -32 -2 -11 -9 -19 -16 -18 -6 2 -9 -4 -6 -12 4 -8 1 -15 -7 -15
-7 0 -9 -3 -5 -7 4 -4 18 6 31 22 13 17 24 24 25 18 0 -7 -5 -13 -11 -13 -6 0
-8 -7 -5 -16 3 -8 2 -12 -4 -9 -6 3 -13 0 -16 -9 -3 -8 -13 -12 -22 -10 -14 5
-13 3 2 -10 10 -8 23 -13 29 -9 6 3 7 1 3 -5 -5 -9 -13 -9 -28 -1 -14 8 -23 8
-31 0 -7 -7 -16 -7 -31 1 -15 8 -21 8 -24 -1 -2 -6 -9 -8 -14 -5 -7 4 -8 2 -4
-5 4 -6 11 -9 16 -6 5 3 7 -6 4 -21 -3 -16 -1 -23 6 -19 6 4 7 -1 3 -11 -4
-11 -8 -13 -11 -6 -2 7 -13 17 -24 23 -13 7 -18 7 -14 1 4 -6 -2 -15 -11 -21
-16 -9 -16 -10 4 -8 12 0 19 5 16 11 -3 5 -1 6 5 3 5 -4 8 -17 4 -29 -3 -12
-7 -17 -10 -10 -2 6 -8 12 -13 12 -6 0 -7 -5 -4 -11 4 -6 -1 -16 -11 -24 -21
-14 -34 -18 -34 -10 0 3 3 5 6 4 8 -1 24 22 24 34 0 5 -7 1 -16 -7 -8 -9 -21
-13 -27 -9 -7 3 -9 3 -5 -2 8 -9 -9 -35 -22 -35 -5 0 -11 8 -13 18 -3 9 -4 1
-4 -18 1 -23 -2 -34 -10 -33 -7 2 -10 -4 -6 -12 4 -12 9 -13 18 -5 9 8 15 8
20 0 4 -6 1 -9 -7 -8 -7 2 -12 -3 -10 -9 3 -17 -3 -16 -22 3 -15 14 -16 13
-16 -6 0 -12 4 -19 8 -16 4 2 14 0 22 -6 12 -8 12 -9 -2 -4 -10 3 -20 1 -23
-4 -4 -6 -1 -10 6 -10 7 0 9 -3 6 -6 -4 -4 -14 -1 -24 7 -15 12 -16 12 -10 -3
4 -12 1 -16 -13 -13 -28 5 -60 -6 -60 -21 0 -8 5 -14 12 -14 14 0 4 -11 -14
-14 -7 -2 -21 -6 -30 -11 -16 -6 -16 -9 5 -27 12 -11 17 -17 10 -14 -6 4 -18
-3 -26 -14 -7 -11 -17 -17 -20 -13 -4 3 -7 0 -7 -7 0 -7 -3 -10 -7 -7 -3 4
-12 2 -18 -3 -9 -8 -14 -6 -18 4 -4 10 -1 13 9 9 7 -3 14 0 14 7 0 6 4 9 8 6
4 -2 14 0 22 6 12 8 12 9 -2 4 -10 -3 -20 -1 -23 4 -4 6 -12 10 -18 9 -9 0 -8
-2 1 -6 6 -2 10 -9 7 -13 -3 -5 -12 -7 -20 -3 -8 3 -15 0 -15 -7 0 -10 -3 -10
-14 -1 -11 9 -16 9 -22 0 -4 -7 -3 -9 4 -5 6 3 13 2 17 -4 4 -6 12 -7 18 -4 7
4 9 4 5 -1 -4 -4 -2 -15 5 -23 8 -11 8 -14 0 -9 -6 4 -14 3 -18 -3 -3 -5 -12
-10 -18 -10 -7 0 -3 7 7 15 11 8 14 15 8 15 -7 0 -15 0 -19 0 -7 0 -8 -8 -4
-41 0 -5 5 -8 10 -5 11 7 8 -21 -4 -31 -4 -4 -5 -3 -2 3 4 7 1 17 -6 23 -11 8
-13 7 -12 -7 1 -9 6 -25 10 -35 4 -10 5 -21 1 -24 -3 -4 -6 2 -6 12 0 10 -3
15 -6 12 -4 -3 -16 -1 -28 5 -19 10 -20 10 -7 -5 7 -10 10 -17 5 -17 -5 0 -2
-5 6 -10 9 -6 11 -10 3 -10 -7 0 -19 12 -26 27 -14 26 -15 26 -21 6 -5 -15
-13 -20 -28 -18 -11 3 -18 2 -14 -2 3 -3 0 -13 -7 -21 -6 -9 -7 -13 -2 -10 6
4 19 0 30 -8 18 -13 17 -14 -15 -8 -26 4 -31 3 -20 -5 13 -9 13 -12 1 -23 -10
-10 -12 -10 -7 0 4 6 2 12 -3 12 -16 0 -13 -11 10 -36 l20 -21 -23 1 c-19 1
-23 -4 -21 -24 1 -15 0 -18 -3 -7 -3 9 -10 15 -15 12 -5 -4 -9 -1 -9 4 0 6 4
11 8 11 4 0 8 9 9 20 1 11 -2 20 -8 20 -5 0 -8 -3 -8 -7 4 -25 -3 -35 -21 -30
-10 3 -19 2 -18 -2 2 -19 -3 -31 -12 -26 -6 4 -8 10 -6 14 3 4 -1 8 -9 8 -8 0
-15 -4 -15 -9 0 -4 5 -8 10 -8 6 0 10 -4 10 -10 0 -5 -6 -9 -12 -7 -7 1 -14
-5 -14 -13 -3 -33 -5 -34 -15 -20 -8 12 -9 10 -4 -7 4 -16 2 -22 -7 -20 -7 2
-9 2 -5 -1 4 -2 3 -10 -4 -18 -6 -8 -16 -11 -22 -7 -6 3 -7 1 -3 -6 4 -6 11
-9 16 -6 5 3 11 1 14 -4 13 -20 -12 -19 -33 0 -28 26 -37 20 -12 -8 20 -21 20
-21 -4 -19 -13 0 -21 4 -18 8 2 5 -1 16 -7 25 -9 15 -10 14 -4 -6 4 -15 2 -21
-4 -17 -6 3 -14 1 -18 -5 -4 -7 -3 -9 3 -6 6 4 14 0 17 -9 3 -9 2 -12 -5 -9
-13 9 -8 -27 6 -37 6 -5 5 -8 -2 -8 -7 0 -20 -12 -28 -27 -9 -16 -14 -20 -11
-10 4 12 2 16 -7 12 -6 -4 -5 -1 3 7 20 17 22 35 5 35 -7 0 -11 -6 -8 -14 4
-9 0 -11 -13 -7 -14 4 -16 3 -5 -4 9 -7 10 -12 2 -16 -6 -4 -11 -13 -11 -19 0
-7 4 -6 10 3 5 8 10 11 10 5 0 -5 -5 -17 -10 -25 -7 -11 -10 -11 -10 -2 0 7
-5 10 -12 6 -6 -4 -8 -3 -5 3 3 5 0 10 -8 10 -8 0 -12 -4 -9 -8 3 -5 -1 -19
-8 -31 -6 -13 -13 -29 -14 -36 -3 -19 -14 -28 -14 -13 0 7 -4 9 -10 6 -12 -7
-13 -41 -2 -48 4 -2 1 -2 -6 -1 -6 2 -12 -1 -12 -6 0 -16 -59 -4 -82 16 -14
12 -18 14 -13 4 5 -8 17 -21 27 -28 10 -7 18 -19 17 -25 0 -9 -2 -8 -6 1 -2 6
-8 10 -13 7 -12 -8 -42 45 -36 62 5 13 4 14 -9 3 -8 -7 -12 -16 -9 -21 3 -5
-2 -6 -11 -2 -11 4 -13 8 -5 13 7 5 8 14 1 33 -6 15 -7 26 -3 26 18 -3 32 2
32 10 0 14 -42 4 -52 -11 -5 -9 -8 -10 -8 -1 0 6 5 15 10 18 6 3 10 11 10 17
0 6 -7 5 -17 -3 -13 -11 -17 -11 -20 -1 -3 6 -9 10 -13 7 -5 -3 -11 -1 -14 4
-7 11 13 9 31 -2 9 -5 11 -3 7 6 -6 15 -54 20 -54 6 0 -5 -6 -9 -12 -9 -7 1
-3 9 10 20 l23 19 -40 -2 c-22 -1 -37 1 -35 5 3 5 12 8 20 8 8 0 14 5 14 11 0
6 -9 8 -22 4 -16 -4 -19 -3 -10 3 11 7 10 10 -3 16 -9 3 -21 4 -26 0 -16 -10
-9 1 13 20 18 16 20 16 15 2 -4 -10 -3 -15 2 -11 5 3 11 -1 14 -7 2 -7 7 -10
11 -7 4 3 -6 20 -22 37 -21 22 -35 29 -50 25 -11 -3 -19 -10 -18 -16 2 -7 1
-9 -1 -4 -3 4 -10 4 -16 0 -9 -5 -9 -3 -1 8 13 16 15 51 2 43 -5 -3 -6 -9 -3
-14 3 -4 -3 -14 -13 -21 -9 -7 -14 -9 -10 -5 4 5 3 15 -3 22 -15 18 -24 78
-10 69 6 -3 9 -10 6 -15 -3 -5 -1 -11 4 -15 6 -3 7 -13 4 -23 -3 -9 -3 -14 1
-10 4 3 8 12 10 20 1 7 6 20 10 28 5 8 6 12 1 8 -12 -11 -36 12 -28 26 3 6 -3
2 -15 -8 -12 -11 -25 -16 -29 -12 -10 10 -11 46 -1 40 5 -4 7 -12 4 -20 -3 -8
-1 -14 3 -14 22 0 15 27 -13 50 -16 14 -27 19 -23 13 6 -9 0 -13 -18 -13 -18
0 -24 -4 -19 -12 4 -8 3 -10 -2 -5 -5 5 -9 12 -10 15 -2 20 -17 41 -25 36 -5
-3 -6 2 -2 12 5 14 7 14 18 -5 6 -12 15 -18 20 -14 4 4 5 2 1 -4 -5 -9 -2 -11
10 -6 11 4 13 8 6 11 -7 2 -10 8 -7 13 4 5 -2 6 -11 2 -12 -4 -15 -3 -10 5 4
7 2 12 -5 12 -9 0 -9 3 0 14 9 11 9 16 0 22 -7 4 -9 3 -5 -4 3 -6 2 -13 -3
-16 -14 -9 -42 5 -35 16 4 6 10 5 15 -3 5 -8 9 -9 9 -3 0 6 -7 17 -15 24 -12
10 -13 16 -3 29 12 14 11 14 -4 2 -15 -11 -21 -11 -33 -1 -8 7 -15 9 -15 4 0
-4 -5 -3 -12 4 -7 7 -16 12 -22 12 -5 0 -1 -6 9 -14 11 -8 24 -12 30 -8 5 3 4
-2 -4 -11 -16 -20 -22 -22 -19 -6 2 6 -3 14 -11 17 -8 3 -11 0 -7 -7 4 -6 2
-11 -4 -11 -7 0 -10 6 -7 14 3 8 3 17 -1 21 -4 4 -7 12 -7 18 -1 7 -7 11 -14
9 -9 -2 -11 3 -7 13 3 9 6 19 6 21 0 3 4 2 10 -1 6 -3 7 1 4 9 -7 19 -20 21
-30 4 -5 -7 -3 -8 6 -3 9 6 11 4 5 -5 -7 -11 -11 -10 -19 5 -6 10 -21 29 -34
41 -13 13 -20 28 -16 38 3 9 2 16 -4 16 -6 0 -9 -11 -7 -25 1 -14 -3 -28 -9
-32 -6 -3 -8 -3 -4 2 4 4 0 14 -10 22 -9 8 -12 12 -6 9 6 -3 11 1 11 9 0 11
-5 12 -20 4 -14 -8 -22 -8 -31 1 -8 8 -6 9 8 4 15 -6 17 -4 11 6 -5 8 -4 11 2
7 15 -9 25 21 15 40 -8 13 -10 13 -15 -1 -4 -10 -3 -15 3 -11 6 3 10 1 10 -4
0 -14 -13 -14 -28 1 -9 9 -8 16 5 31 14 15 14 18 3 15 -9 -2 -14 3 -12 12 2 8
0 12 -4 8 -4 -4 -14 -2 -23 5 -14 11 -14 10 -2 -5 8 -11 9 -18 3 -18 -6 0 -17
9 -25 20 -8 11 -17 17 -22 12 -4 -4 -5 1 -2 11 4 10 3 16 -2 12 -6 -3 -14 3
-20 12 -5 10 -12 15 -15 12 -3 -3 8 -20 24 -38 26 -28 27 -32 9 -26 -14 5 -19
4 -15 -4 5 -7 1 -8 -9 -4 -12 4 -13 8 -5 13 9 6 9 13 1 29 -7 12 -17 18 -23
15 -7 -4 -8 -3 -4 4 4 7 1 12 -8 12 -8 0 -17 3 -19 8 -3 4 5 7 18 7 13 0 21
-4 17 -9 -3 -5 0 -6 7 -2 8 6 9 12 2 20 -6 7 -9 15 -6 17 2 3 -5 6 -17 6 -20
2 -20 1 -2 -13 17 -14 17 -14 -6 -2 -14 7 -29 11 -33 10 -5 -1 -5 3 -1 9 5 9
2 10 -12 5 -15 -6 -16 -5 -7 5 9 8 16 9 25 2 8 -6 21 -7 33 -2 14 5 15 8 5 9
-8 1 -24 3 -34 5 -11 2 -28 -1 -39 -7 -14 -7 -17 -7 -13 1 7 10 -5 15 -29 12
-5 -1 1 9 15 21 20 17 21 20 5 14 -11 -4 -27 -10 -35 -14 -8 -3 -4 4 10 16 14
12 20 21 14 22 -6 0 -11 7 -12 15 -1 8 -3 22 -4 30 -2 19 -14 19 -22 0 -3 -8
2 -19 12 -24 15 -9 14 -10 -5 -8 -18 1 -21 6 -18 34 2 18 -1 33 -7 33 -5 0 -6
-4 -3 -10 3 -5 2 -10 -4 -10 -5 0 -11 3 -14 8 -2 4 -2 2 -1 -5 2 -7 -1 -15 -6
-18 -6 -4 -11 1 -11 9 -3 29 -4 34 -11 41 -4 4 -5 -5 -2 -19 4 -24 3 -26 -16
-16 -20 11 -20 9 -20 -1090 l0 -1100 1300 0 1300 0 0 1239 c0 1162 -2 1240
-18 1252 -15 12 -16 12 -4 -2z m-57 -38 c-6 -10 -7 -21 -3 -25 3 -4 -2 -4 -12
0 -15 6 -17 4 -11 -6 5 -9 4 -11 -3 -6 -19 11 4 46 36 55 1 1 -2 -7 -7 -18z
m-2493 -296 c-3 -3 -9 2 -12 12 -6 14 -5 15 5 6 7 -7 10 -15 7 -18z m2212 10
c7 -9 8 -15 2 -15 -5 0 -12 7 -16 15 -3 8 -4 15 -2 15 2 0 9 -7 16 -15z m55
-5 c3 -6 -1 -7 -9 -4 -18 7 -21 14 -7 14 6 0 13 -4 16 -10z m-2165 -36 c0 -8
-19 -13 -24 -6 -3 5 1 9 9 9 8 0 15 -2 15 -3z m17 -79 c0 -8 -4 -12 -9 -9 -5
3 -6 10 -3 15 9 13 12 11 12 -6z m2023 -10 c-7 -9 -15 -13 -19 -10 -3 3 1 10
9 15 21 14 24 12 10 -5z m-60 -13 c0 -5 -7 -9 -15 -9 -8 0 -12 4 -9 9 3 4 9 8
15 8 5 0 9 -4 9 -8z m-1761 -125 c0 -8 -3 -7 -6 2 -4 11 -7 11 -14 0 -4 -7
-11 -10 -16 -6 -9 9 17 28 29 21 4 -3 8 -11 7 -17z m37 1 c4 -7 3 -8 -4 -4 -7
4 -12 0 -12 -10 0 -10 -3 -15 -6 -11 -7 6 2 37 10 37 3 0 8 -5 12 -12z m1604
-12 c0 -3 -4 -8 -10 -11 -5 -3 -10 -1 -10 4 0 6 5 11 10 11 6 0 10 -2 10 -4z
m-53 -52 c-3 -3 -12 -4 -19 -1 -8 3 -5 6 6 6 11 1 17 -2 13 -5z m-1512 -53 c3
-5 2 -12 -3 -15 -5 -3 -9 1 -9 9 0 17 3 19 12 6z m55 -15 c0 -3 -4 -8 -10 -11
-5 -3 -10 -1 -10 4 0 6 5 11 10 11 6 0 10 -2 10 -4z m1421 -19 c-10 -9 -11 -8
-5 6 3 10 9 15 12 12 3 -3 0 -11 -7 -18z m-1356 -86 c3 -5 2 -12 -3 -15 -5 -3
-9 1 -9 9 0 17 3 19 12 6z m1154 -42 c-19 -12 -42 -11 -34 1 4 6 11 8 16 5 5
-4 12 2 16 11 5 13 8 14 11 5 2 -7 -2 -17 -9 -22z m-1049 2 c0 -4 -10 -7 -22
-8 -13 0 -17 1 -10 4 6 3 10 9 7 14 -4 5 1 6 9 3 9 -3 16 -9 16 -13z m20 -55
c0 -3 -4 -8 -10 -11 -5 -3 -10 -1 -10 4 0 6 5 11 10 11 6 0 10 -2 10 -4z m15
-46 c3 -5 1 -10 -4 -10 -6 0 -11 5 -11 10 0 6 2 10 4 10 3 0 8 -4 11 -10z m78
-30 c-3 -12 -8 -19 -11 -16 -5 6 5 36 12 36 2 0 2 -9 -1 -20z m812 1 c3 -5 2
-12 -3 -15 -5 -3 -9 1 -9 9 0 17 3 19 12 6z m-56 -62 c-8 -5 -9 -9 -4 -9 6 0
2 -5 -8 -11 -13 -8 -15 -14 -7 -29 7 -13 7 -21 0 -25 -6 -4 -10 -3 -9 2 4 21
-2 34 -13 27 -6 -4 0 8 14 27 14 19 24 41 21 49 -2 8 1 7 8 -4 9 -14 8 -20 -2
-27z m31 31 c0 -5 -2 -10 -4 -10 -3 0 -8 5 -11 10 -3 6 -1 10 4 10 6 0 11 -4
11 -10z m-627 -113 c-5 -8 -8 -7 -11 1 -2 7 -9 9 -14 6 -7 -4 -8 -2 -4 4 4 6
13 9 21 6 8 -4 12 -11 8 -17z m511 -29 c-3 -4 -9 -8 -15 -8 -5 0 -9 4 -9 8 0
5 7 9 15 9 8 0 12 -4 9 -9z m-127 -123 c0 -8 -4 -12 -9 -9 -5 3 -6 10 -3 15 9
13 12 11 12 -6z m-187 -120 c14 -19 14 -19 -2 -6 -10 7 -18 18 -18 24 0 6 1 8
3 6 1 -2 9 -13 17 -24z"/>
<path d="M2252 2225 c4 -4 3 -14 -3 -21 -7 -8 -7 -14 1 -19 5 -3 10 -5 11 -3
6 27 5 39 -4 45 -7 3 -9 3 -5 -2z"/>
<path d="M2187 2149 c7 -7 15 -10 18 -7 3 3 -2 9 -12 12 -14 6 -15 5 -6 -5z"/>
<path d="M150 2085 c0 -7 30 -13 34 -7 3 4 -4 9 -15 9 -10 1 -19 0 -19 -2z"/>
<path d="M2036 2022 c-3 -5 1 -9 9 -9 8 0 12 4 9 9 -3 4 -7 8 -9 8 -2 0 -6 -4
-9 -8z"/>
<path d="M1990 1940 c0 -5 9 -8 20 -7 21 1 18 10 -5 13 -8 1 -15 -2 -15 -6z"/>
<path d="M1945 1919 c-3 -4 2 -6 10 -5 21 3 28 13 10 13 -9 0 -18 -4 -20 -8z"/>
<path d="M1915 1910 c-3 -5 -1 -10 4 -10 6 0 11 5 11 10 0 6 -2 10 -4 10 -3 0
-8 -4 -11 -10z"/>
<path d="M1906 1875 c3 -6 11 -12 18 -12 8 0 12 6 10 12 -3 6 -11 12 -18 12
-8 0 -12 -6 -10 -12z"/>
<path d="M1870 1822 c0 -15 28 -23 36 -9 4 7 4 9 -1 5 -4 -4 -14 -3 -22 3 -8
7 -13 8 -13 1z"/>
<path d="M513 1775 c-8 -22 2 -29 24 -15 17 11 17 11 -1 6 -13 -5 -17 -2 -12
9 3 8 3 15 0 15 -2 0 -7 -7 -11 -15z"/>
<path d="M559 1697 c6 -8 7 -18 3 -22 -4 -5 -2 -5 5 -1 14 8 6 36 -9 36 -7 0
-6 -5 1 -13z"/>
<path d="M1740 1686 c0 -8 4 -17 9 -20 5 -4 7 3 4 14 -6 23 -13 26 -13 6z"/>
<path d="M595 1680 c3 -5 8 -10 11 -10 2 0 4 5 4 10 0 6 -5 10 -11 10 -5 0 -7
-4 -4 -10z"/>
<path d="M1660 1660 c-8 -5 -10 -10 -5 -10 6 0 17 5 25 10 8 5 11 10 5 10 -5
0 -17 -5 -25 -10z"/>
<path d="M1616 1532 c-3 -5 1 -9 9 -9 8 0 12 4 9 9 -3 4 -7 8 -9 8 -2 0 -6 -4
-9 -8z"/>
<path d="M810 1506 c0 -2 7 -7 16 -10 8 -3 12 -2 9 4 -6 10 -25 14 -25 6z"/>
<path d="M1350 1321 c0 -5 7 -11 14 -14 10 -4 13 -1 9 9 -6 15 -23 19 -23 5z"/>
<path d="M1290 1260 c0 -5 5 -10 11 -10 5 0 7 5 4 10 -3 6 -8 10 -11 10 -2 0
-4 -4 -4 -10z"/>
<path d="M1246 1211 c-9 -16 -12 -31 -9 -35 4 -3 2 -6 -4 -6 -6 0 -14 -8 -17
-17 -6 -16 -6 -16 12 0 10 9 22 14 26 10 4 -5 6 -3 5 2 -2 6 3 21 10 34 10 18
10 22 0 16 -9 -6 -11 -3 -6 8 10 27 -1 19 -17 -12z m5 -24 c-10 -9 -11 -8 -5
6 3 10 9 15 12 12 3 -3 0 -11 -7 -18z"/>
<path d="M1090 1159 c0 -5 5 -7 10 -4 6 3 10 8 10 11 0 2 -4 4 -10 4 -5 0 -10
-5 -10 -11z"/>
<path d="M1198 1127 c7 -8 8 -18 4 -22 -4 -5 -1 -5 6 -1 17 10 15 23 -4 30
-13 5 -14 4 -6 -7z"/>
</g>
</svg>
